<mxfile host="app.diagrams.net" modified="2023-08-22T07:24:36.943Z" agent="Mozilla/5.0 (Windows NT 10.0; Win64; x64) AppleWebKit/537.36 (KHTML, like Gecko) Chrome/116.0.0.0 Safari/537.36" etag="1FLkZKNnnbXfY-yQEy9I" version="21.6.8" type="github">
  <diagram name="Halaman-1" id="qtWU3SoxqRSenDT3cpxr">
    <mxGraphModel dx="880" dy="478" grid="1" gridSize="10" guides="1" tooltips="1" connect="1" arrows="1" fold="1" page="1" pageScale="1" pageWidth="827" pageHeight="1169" math="0" shadow="0">
      <root>
        <mxCell id="0" />
        <mxCell id="1" parent="0" />
        <mxCell id="sSVDMPWryiy65UMoMR5d-55" value="" style="edgeStyle=orthogonalEdgeStyle;rounded=0;orthogonalLoop=1;jettySize=auto;html=1;" edge="1" parent="1" source="sSVDMPWryiy65UMoMR5d-5" target="sSVDMPWryiy65UMoMR5d-8">
          <mxGeometry relative="1" as="geometry" />
        </mxCell>
        <mxCell id="sSVDMPWryiy65UMoMR5d-5" value="" style="verticalLabelPosition=bottom;verticalAlign=top;html=1;shape=mxgraph.basic.rect;fillColor2=none;strokeWidth=1;size=20;indent=5;fillColor=#dae8fc;strokeColor=#6c8ebf;" vertex="1" parent="1">
          <mxGeometry x="200" y="100" width="440" height="530" as="geometry" />
        </mxCell>
        <mxCell id="sSVDMPWryiy65UMoMR5d-6" value="Random Angka" style="ellipse;whiteSpace=wrap;html=1;fontFamily=Comic Sans MS;fillColor=#dae8fc;strokeColor=#6c8ebf;gradientColor=#7ea6e0;fontSize=16;" vertex="1" parent="1">
          <mxGeometry x="312" y="250" width="216" height="100" as="geometry" />
        </mxCell>
        <mxCell id="sSVDMPWryiy65UMoMR5d-37" style="edgeStyle=orthogonalEdgeStyle;rounded=0;orthogonalLoop=1;jettySize=auto;html=1;exitX=0.5;exitY=0.5;exitDx=0;exitDy=0;exitPerimeter=0;entryX=0.227;entryY=0.358;entryDx=0;entryDy=0;entryPerimeter=0;" edge="1" parent="1" source="sSVDMPWryiy65UMoMR5d-8" target="sSVDMPWryiy65UMoMR5d-5">
          <mxGeometry relative="1" as="geometry" />
        </mxCell>
        <mxCell id="sSVDMPWryiy65UMoMR5d-8" value="&lt;font color=&quot;#5a77a1&quot; face=&quot;Comic Sans MS&quot; style=&quot;font-size: 13px;&quot;&gt;&lt;b style=&quot;font-size: 13px;&quot;&gt;Computer&lt;/b&gt;&lt;/font&gt;" style="shape=umlActor;verticalLabelPosition=bottom;verticalAlign=top;html=1;fillColor=#bac8d3;strokeColor=#23445d;fontSize=13;" vertex="1" parent="1">
          <mxGeometry x="50" y="260" width="60" height="120" as="geometry" />
        </mxCell>
        <mxCell id="sSVDMPWryiy65UMoMR5d-12" value="Tebak Angka" style="ellipse;whiteSpace=wrap;html=1;fillColor=#dae8fc;strokeColor=#6c8ebf;gradientColor=#7ea6e0;fontFamily=Comic Sans MS;labelBorderColor=none;fontSize=16;" vertex="1" parent="1">
          <mxGeometry x="312" y="420" width="216" height="100" as="geometry" />
        </mxCell>
        <mxCell id="sSVDMPWryiy65UMoMR5d-42" style="edgeStyle=orthogonalEdgeStyle;rounded=0;orthogonalLoop=1;jettySize=auto;html=1;exitX=0.5;exitY=0.5;exitDx=0;exitDy=0;exitPerimeter=0;" edge="1" parent="1" source="sSVDMPWryiy65UMoMR5d-17">
          <mxGeometry relative="1" as="geometry">
            <mxPoint x="540" y="470" as="targetPoint" />
          </mxGeometry>
        </mxCell>
        <mxCell id="sSVDMPWryiy65UMoMR5d-17" value="&lt;font style=&quot;font-size: 13px;&quot;&gt;Player&lt;br&gt;(User)&lt;/font&gt;" style="shape=umlActor;verticalLabelPosition=bottom;verticalAlign=top;html=1;fillColor=#ffe6cc;strokeColor=#d79b00;fontColor=#FFB570;fontFamily=Comic Sans MS;fontStyle=1" vertex="1" parent="1">
          <mxGeometry x="710" y="350" width="60" height="120" as="geometry" />
        </mxCell>
        <mxCell id="sSVDMPWryiy65UMoMR5d-50" value="Game Tebak Angka" style="labelPosition=center;verticalLabelPosition=middle;align=center;html=1;shape=mxgraph.basic.shaded_button;dx=10;fillColor=#f5f5f5;strokeColor=#666666;whiteSpace=wrap;fontFamily=Comic Sans MS;fontStyle=0;fontSize=19;gradientColor=#b3b3b3;" vertex="1" parent="1">
          <mxGeometry x="252.5" y="130" width="335" height="60" as="geometry" />
        </mxCell>
        <mxCell id="sSVDMPWryiy65UMoMR5d-53" value="&lt;font style=&quot;font-size: 13px;&quot;&gt;3.. 13.. ??&lt;/font&gt;" style="whiteSpace=wrap;html=1;shape=mxgraph.basic.cloud_callout" vertex="1" parent="1">
          <mxGeometry x="540" y="110" width="90" height="60" as="geometry" />
        </mxCell>
      </root>
    </mxGraphModel>
  </diagram>
</mxfile>
